<svg width="68" height="66" viewBox="0 0 68 66" fill="none" xmlns="http://www.w3.org/2000/svg">
<path d="M24.4002 43.9967L30.5 44.4033V59.4221L9.2794 60.3515C8.77874 60.3443 8.29981 60.1438 7.94325 59.7912C7.58173 59.4338 7.37503 58.9488 7.36743 58.4406V3.40761C7.36743 2.36403 8.21982 1.5061 9.3076 1.5061H64.3116C65.3772 1.5061 66.2131 2.34202 66.2131 3.40761V58.4502C66.2131 59.4883 65.3661 60.3517 64.3116 60.3517H45.9597L45.5392 44.9168L53.0832 44.4977L54.2902 44.4306L54.4812 43.237L56.4812 30.737L56.7591 29H55H46V24.9182C46.1448 24.9564 46.3067 25.0018 46.4885 25.0543C46.582 25.0813 46.6805 25.1101 46.783 25.1401C47.154 25.2487 47.5765 25.3723 48.0007 25.4801C49.05 25.7468 50.4388 26.0118 51.75 25.6831C53.1955 25.3208 54.3194 24.3035 54.892 22.5716L56.8377 18.7359L57 18.416V18.0573V11V9.69066L55.7027 9.51375C55.1525 9.43873 54.7781 9.44211 54.1701 9.45696C54.102 9.45862 54.03 9.46047 53.9533 9.46243C53.3603 9.47764 52.4878 9.5 51 9.5C47.0966 9.5 42.4801 11.1121 38.9748 12.6224C37.1931 13.3902 35.6424 14.1568 34.5369 14.7316C33.9835 15.0193 33.5401 15.2597 33.2333 15.4292C33.0798 15.514 32.9604 15.5811 32.8784 15.6276C32.8374 15.6508 32.8057 15.6689 32.7838 15.6815L32.7583 15.6962L32.7511 15.7003L32.7489 15.7016L32.7482 15.702C32.7479 15.7022 32.7477 15.7023 33.5 17L32.7477 15.7023L32.0584 16.1019L32.0036 16.8968L31.087 30.1866L25.2879 31.0151L24.1244 31.1813L24.0074 32.3507L23.0074 42.3507L22.8532 43.8935L24.4002 43.9967ZM46 24C46 23.9992 46 23.9994 46 24.0005V24ZM45.2557 24.7755C45.2523 24.7757 45.2505 24.7758 45.2504 24.7757C45.2504 24.7757 45.2521 24.7755 45.2557 24.7755Z" fill="white" stroke="white" stroke-width="3"/>
<path d="M58.7904 64.2021H44.5197V43.2369H51.0597H52.3791L52.5474 41.9283L53.7457 32.6128L53.9632 30.9214H52.2579H44.5197V26.4688C44.5197 25.1867 44.7207 24.5146 45.0361 24.1406C45.3036 23.8234 45.9303 23.4076 47.6582 23.4076H52.6058H54.1058V21.9076V17.7331V13.5585V12.2491L52.8085 12.0722C51.8716 11.9445 48.8627 11.7106 45.4163 11.7106C41.5395 11.7106 38.1228 12.889 35.6707 15.3074C33.2137 17.7307 31.895 21.2316 31.895 25.5411V30.9214H25.3164H23.8164V32.4214V41.7369V43.2369H25.3164H31.895V64.2021H3.78642H3.78632C3.27551 64.2021 2.7853 64.0007 2.42207 63.6416C2.06055 63.2841 1.85385 62.7991 1.84625 62.291V7.25796C1.84625 6.21437 2.69864 5.35645 3.78642 5.35645H58.7904C59.856 5.35645 60.6919 6.19236 60.6919 7.25796V62.3006C60.6919 63.3386 59.8449 64.2021 58.7904 64.2021Z" stroke="black" stroke-width="3"/>
</svg>
