<svg width="85" height="80" viewBox="0 0 85 80" fill="none" xmlns="http://www.w3.org/2000/svg">
<path fill-rule="evenodd" clip-rule="evenodd" d="M46 0C24.7351 0 5 20.7123 5 41.9492C5 58.9341 12.1988 73.3401 27.5 78.4286C29.4262 78.7755 28 77.0177 28 76C28.5 75 28.0116 75.2035 28 72C17.2884 74.3207 15.5 67 15.5 67C13.7553 62.5591 12 61.5 12 61.5C8.50667 59.1138 10.5 57 10.5 57C14.3678 57.2698 19.5 62 19.5 62C22.9354 67.8749 25.8152 65.483 28 64.5C28.3513 62.0136 28.9037 61.4599 30 60.5C21.4539 59.5324 13 56.2375 13 41.5C13 37.3097 14.4764 33.183 16.9275 30.5C16.5376 29.5247 14.8238 24.9671 16.9275 19.6781C16.9275 19.6781 22.1466 18.4148 29.5 23.3877C32.6405 22.5345 40.2415 22.0989 43.4961 22.0924C46.7509 22.0977 45.3598 22.5332 48.5 23.3877C55.8572 18.4109 59 19.6781 59 19.6781C61.1037 24.9671 60.5 29.6288 60.5 29.6288C62.9704 32.3119 64.5 35.7466 64.5 39.9408C64.5 54.7168 57.077 59.9403 48.5 60.8924C49.8703 62.0798 49.5 62.4149 49.5 66C49.5 71.1425 49.5 78.4286 49.5 78.4286C49.5 79.4579 53.7252 78.8064 55.69 78.4286C70.9835 73.3323 85 56.9218 85 39.9408C85 18.7039 67.2649 0 46 0Z" fill="white"/>
<path d="M17.4466 70.4899C19.4963 72.19 22.679 73.4534 27.4164 72.8273C27.4231 73.9565 27.4313 74.9356 27.438 75.7291C27.445 76.5684 27.4503 77.2 27.4503 77.5821C27.4503 77.7828 27.3789 77.8873 27.3488 77.9149C27.3382 77.9246 27.3051 77.9533 27.212 77.975C27.1218 77.9959 26.9561 78.0139 26.6911 77.9756C12.0415 73.0517 1.5 59.2265 1.5 42.9492C1.5 22.5426 18.0616 6 38.5 6C58.9384 6 75.5 22.5426 75.5 42.9492C75.5 59.2262 64.9654 73.0425 50.3182 77.9712C50.0368 78.0164 49.8625 77.9998 49.7692 77.9792C49.6753 77.9586 49.6448 77.9308 49.6375 77.9241L49.6374 77.9241C49.6134 77.9022 49.5381 77.7988 49.5381 77.5821C49.5381 77.1699 49.5432 76.4451 49.5499 75.4687C49.5534 74.9667 49.5573 74.3983 49.5613 73.7718C49.5729 71.9328 49.5845 69.6067 49.5845 67.0311C49.5845 64.5867 49.0575 62.5793 48.2328 61.043C51.8297 60.4204 55.4903 59.2323 58.4431 56.7623C62.1846 53.6328 64.5498 48.6567 64.5498 40.9408C64.5498 36.7087 63.1579 33.1469 60.8013 30.3004C61.3612 28.4497 62.0039 24.662 60.1088 19.8974L59.8477 19.241L59.1755 19.0242L58.715 20.4518C59.1755 19.0242 59.174 19.0237 59.1726 19.0232L59.1696 19.0223L59.1633 19.0203L59.15 19.0162L59.1195 19.0072C59.0975 19.0009 59.0722 18.994 59.0435 18.9868C58.9861 18.9723 58.9155 18.9565 58.8315 18.9412C58.6632 18.9104 58.4421 18.8816 58.167 18.8686C57.6156 18.8424 56.855 18.8797 55.8741 19.0853C54.0141 19.4752 51.374 20.4674 47.8604 22.7659C44.8008 21.9919 41.6565 21.5975 38.4986 21.5924L38.4931 21.5924C35.3355 21.5987 32.1916 21.9932 29.132 22.7661C25.62 20.4692 22.98 19.4772 21.1199 19.0869C20.139 18.881 19.3783 18.8433 18.827 18.8691C18.5518 18.8819 18.3308 18.9105 18.1626 18.941C18.0785 18.9563 18.008 18.972 17.9507 18.9863C17.922 18.9935 17.8967 19.0004 17.8748 19.0066L17.8443 19.0156L17.831 19.0197L17.8248 19.0217L17.8218 19.0226C17.8203 19.0231 17.8189 19.0235 18.2773 20.4518L17.8189 19.0235L17.145 19.2398L16.8835 19.8974C14.9847 24.6712 15.6426 28.4619 16.195 30.3002C13.8545 33.143 12.4425 36.7065 12.4425 40.9408C12.4425 48.6384 14.8062 53.6158 18.5383 56.7549C21.4876 59.2356 25.1436 60.4377 28.7343 61.0693C28.284 61.9113 27.9231 62.8942 27.6895 64.0121C26.7072 64.3702 25.386 64.6896 24.0252 64.568C22.4003 64.4228 20.5883 63.6449 19.1234 61.1468L19.1218 61.144C19.1148 61.1315 19.1056 61.1155 19.0944 61.0962C19.0719 61.0576 19.041 61.0057 19.0018 60.9425C18.9235 60.8163 18.8112 60.6435 18.6651 60.4391C18.3743 60.0321 17.9419 59.4888 17.3675 58.9336C16.2287 57.8329 14.4404 56.6012 12.0319 56.4332L11.9905 56.4303L11.949 56.4297L11.9275 57.9296C11.949 56.4297 11.9486 56.4297 11.9481 56.4297L11.947 56.4297L11.9447 56.4296L11.9389 56.4296L11.9231 56.4295C11.9108 56.4294 11.8948 56.4294 11.8756 56.4296C11.8373 56.4298 11.7854 56.4306 11.723 56.4327C11.5996 56.4368 11.428 56.446 11.2333 56.4671C10.9037 56.5028 10.2805 56.5927 9.74559 56.8954C9.46232 57.0557 9.06417 57.3539 8.83663 57.8727C8.58829 58.4388 8.65289 59.0115 8.84602 59.4714C9.16925 60.2412 9.9297 60.8956 10.8151 61.5004L10.9153 61.5689L11.0085 61.6125C11.0136 61.6152 11.0224 61.62 11.0347 61.6269C11.0722 61.6481 11.142 61.6896 11.238 61.7551C11.4299 61.8861 11.7274 62.1136 12.0823 62.4688C12.7833 63.1705 13.7287 64.3908 14.5218 66.3933C14.529 66.4149 14.5378 66.4405 14.5482 66.47C14.5755 66.5473 14.6144 66.6511 14.6664 66.7767C14.7702 67.0275 14.9275 67.3682 15.1523 67.7619C15.6006 68.5475 16.3269 69.5613 17.4466 70.4899Z" stroke="black" stroke-width="3"/>
</svg>
