<svg width="102" height="103" viewBox="0 0 102 103" fill="none" xmlns="http://www.w3.org/2000/svg">
<path d="M71.4325 22.7703C71.4316 23.7345 71.6209 24.6894 71.9894 25.5804C72.358 26.4715 72.8987 27.281 73.5805 27.9628C74.2623 28.6446 75.0719 29.1853 75.9629 29.5539C76.8539 29.9225 77.8088 30.1117 78.7731 30.1108C82.8247 30.1101 86.1054 26.8271 86.1054 22.7717C86.1054 21.8082 85.9156 20.8542 85.547 19.9641C85.1783 19.074 84.6379 18.2653 83.9566 17.584C83.2754 16.9028 82.4666 16.3624 81.5765 15.9937C80.6864 15.625 79.7324 15.4352 78.769 15.4352C77.8055 15.4352 76.8515 15.625 75.9614 15.9937C75.0713 16.3624 74.2626 16.9028 73.5813 17.584C72.9 18.2653 72.3596 19.074 71.991 19.9641C71.6224 20.8538 71.4327 21.8073 71.4325 22.7703ZM71.4325 22.7703L72.9325 22.7717M71.4325 22.7703C71.4325 22.7707 71.4325 22.7712 71.4325 22.7717H72.9325M72.9325 22.7717C72.9318 23.5387 73.0823 24.2983 73.3755 25.0071C73.6687 25.7158 74.0988 26.3598 74.6412 26.9022C75.1835 27.4445 75.8275 27.8746 76.5363 28.1678C77.245 28.461 78.0047 28.6115 78.7717 28.6108L72.9325 22.7717ZM99.7293 28.8583L99.7298 28.8922L99.7317 28.926C100.031 34.0426 100.032 35.6826 100.043 48.8065L100.043 48.9288C100.043 48.9292 100.043 48.9296 100.043 48.93C100.043 62.1509 99.973 63.7784 99.7415 68.9576L99.7407 68.9761L99.7403 68.9946C99.6625 72.8801 98.9316 76.7068 97.569 80.336C96.3881 83.3762 94.5872 86.1373 92.281 88.4435C89.9747 90.7498 87.2135 92.5507 84.1732 93.7316C80.5451 95.0923 76.7121 95.8265 72.838 95.9028L72.8088 95.9034L72.7797 95.9051C67.6587 96.2054 66.0087 96.2058 52.7717 96.2058C39.555 96.2058 37.9276 96.1355 32.7427 95.904L32.7339 95.9036L32.7251 95.9033C28.8406 95.7756 25.0064 94.9859 21.3875 93.5683L21.3818 93.5661C18.3376 92.3879 15.5726 90.5876 13.2635 88.2802C10.9563 85.9748 9.15496 83.2139 7.97435 80.1735C6.61157 76.5384 5.88083 72.7117 5.80303 68.832L5.80245 68.8032L5.80077 68.7744C5.50047 63.6479 5.5 62.0032 5.5 48.7663C5.5 35.5496 5.57032 33.9222 5.80184 28.7373L5.8027 28.7181L5.80307 28.6988C5.87629 24.8264 6.61059 20.9951 7.97426 17.37C9.15284 14.3284 10.9529 11.5661 13.2595 9.25951C15.5659 6.95308 18.328 5.1531 21.3694 3.97452C24.9966 2.61381 28.8282 1.87774 32.7015 1.7976L32.7291 1.79702L32.7567 1.79544C37.8786 1.50045 39.5294 1.5 52.7663 1.5C65.9841 1.5 67.611 1.56494 72.7897 1.79642L72.8078 1.79723L72.8259 1.7976C76.7008 1.87716 80.5342 2.61324 84.1631 3.9745C87.2039 5.15396 89.9656 6.95425 92.2719 9.26058C94.5785 11.5672 96.379 14.3293 97.5584 17.3706C98.9424 21.045 99.677 24.9322 99.7293 28.8583ZM26.1925 48.7392C26.1925 63.4018 38.0712 75.2804 52.7338 75.2804C59.7729 75.2804 66.5238 72.4841 71.5013 67.5067C76.4787 62.5292 79.275 55.7783 79.275 48.7392C79.275 41.7 76.4787 34.9491 71.5013 29.9717C66.5238 24.9942 59.7729 22.1979 52.7338 22.1979C38.0712 22.1979 26.1925 34.0766 26.1925 48.7392Z" fill="white" stroke="white" stroke-width="3"/>
<path d="M51.2663 66.5325C60.2499 66.5325 67.5325 59.2499 67.5325 50.2663C67.5325 41.2826 60.2499 34 51.2663 34C42.2826 34 35 41.2826 35 50.2663C35 59.2499 42.2826 66.5325 51.2663 66.5325Z" fill="white"/>
<path d="M64.0325 52.2663C64.0325 60.4214 57.4214 67.0325 49.2663 67.0325C41.1111 67.0325 34.5 60.4214 34.5 52.2663C34.5 44.1111 41.1111 37.5 49.2663 37.5C57.4214 37.5 64.0325 44.1111 64.0325 52.2663Z" stroke="black" stroke-width="3"/>
<path d="M66.9325 27.7698C66.9315 28.7998 67.1337 29.8198 67.5274 30.7716C67.9211 31.7233 68.4987 32.5881 69.227 33.3164C69.9552 34.0447 70.82 34.6222 71.7718 35.0159C72.7235 35.4096 73.7436 35.6118 74.7735 35.6108C79.1014 35.6098 82.6054 32.1027 82.6054 27.7717C82.6054 26.7426 82.4027 25.7235 82.0089 24.7728C81.6151 23.822 81.0379 22.9581 80.3102 22.2305C79.5825 21.5028 78.7186 20.9255 77.7678 20.5317C76.8171 20.1379 75.7981 19.9352 74.769 19.9352C73.7399 19.9352 72.7208 20.1379 71.7701 20.5317C70.8193 20.9255 69.9554 21.5028 69.2277 22.2305C68.5001 22.9581 67.9228 23.822 67.529 24.7728C67.1354 25.723 66.9327 26.7413 66.9325 27.7698ZM66.9325 27.7698L68.9325 27.7717M66.9325 27.7698C66.9325 27.7704 66.9325 27.771 66.9325 27.7717H68.9325M68.9325 27.7717C68.9318 28.5387 69.0823 29.2983 69.3755 30.0071C69.6687 30.7158 70.0988 31.3598 70.6412 31.9022C71.1835 32.4445 71.8275 32.8746 72.5363 33.1678C73.245 33.461 74.0047 33.6115 74.7717 33.6108L68.9325 27.7717ZM95.2293 33.865L95.2299 33.9101L95.2326 33.9552C95.5312 39.0575 95.5325 40.6816 95.5432 53.8274L95.5433 53.9288C95.5433 53.9293 95.5433 53.9298 95.5433 53.9304C95.5433 67.1473 95.473 68.7666 95.242 73.9353L95.2409 73.9599L95.2404 73.9845C95.1637 77.8126 94.4439 81.582 93.1021 85.1569C91.9464 88.1316 90.1841 90.8333 87.9274 93.0899C85.6709 95.3465 82.9695 97.1086 79.995 98.2644C76.4208 99.6046 72.6447 100.328 68.8281 100.403L68.7892 100.404L68.7504 100.406C63.6467 100.705 62.0119 100.706 48.7717 100.706C35.5587 100.706 33.9395 100.636 28.7651 100.404L28.7533 100.404L28.7416 100.404C24.9139 100.278 21.1358 99.4996 17.5699 98.1028L17.5623 98.0998C14.5829 96.9467 11.8768 95.1847 9.61687 92.9265C7.35957 90.671 5.59702 87.9698 4.44154 84.9954C3.09934 81.4142 2.37958 77.6444 2.30293 73.822L2.30216 73.7835L2.29991 73.7451C2.00062 68.6359 2 67.0064 2 53.7663C2 40.5533 2.07029 38.9341 2.30134 33.7596L2.30249 33.7339L2.30298 33.7082C2.37511 29.8936 3.09832 26.1194 4.44139 22.5484C5.59486 19.5725 7.35623 16.8699 9.61306 14.6131C11.8697 12.3564 14.572 10.5952 17.5475 9.44172C21.1211 8.10146 24.8959 7.37645 28.7118 7.29749L28.7486 7.29673L28.7854 7.29461C33.8904 7.0006 35.5263 7 48.7663 7C61.9809 7 63.5994 7.06492 68.7674 7.29592L68.7915 7.297L68.8156 7.2975C72.6331 7.37588 76.4096 8.10086 79.9847 9.4416C82.9598 10.5959 85.6618 12.3575 87.9184 14.6141C90.1753 16.871 91.937 19.5735 93.0914 22.5491C94.4544 26.1686 95.1778 29.9976 95.2293 33.865ZM21.6925 53.7392C21.6925 68.6779 33.795 80.7804 48.7338 80.7804C55.9055 80.7804 62.7836 77.9314 67.8548 72.8602C72.926 67.789 75.775 60.911 75.775 53.7392C75.775 46.5674 72.926 39.6893 67.8548 34.6181C62.7836 29.5469 55.9055 26.6979 48.7338 26.6979C33.795 26.6979 21.6925 38.8004 21.6925 53.7392Z" stroke="black" stroke-width="4"/>
</svg>
