<svg width="144" height="141" viewBox="0 0 144 141" fill="none" xmlns="http://www.w3.org/2000/svg">
<path fill-rule="evenodd" clip-rule="evenodd" d="M7 11.4109C7 8.38457 8.20222 5.48216 10.3422 3.3422C12.4821 1.20223 15.3846 1.52124e-05 18.4109 1.52124e-05H132.16C133.66 -0.0024343 135.145 0.290956 136.532 0.863388C137.918 1.43582 139.178 2.27605 140.239 3.33598C141.3 4.3959 142.141 5.65471 142.715 7.04033C143.289 8.42594 143.584 9.91115 143.583 11.4109V125.16C143.585 126.66 143.291 128.146 142.718 129.532C142.145 130.918 141.304 132.178 140.243 133.239C139.183 134.3 137.924 135.141 136.538 135.715C135.152 136.289 133.666 136.584 132.166 136.583H18.4109C16.9119 136.583 15.4276 136.288 14.0427 135.714C12.6579 135.14 11.3997 134.299 10.34 133.239C9.2803 132.179 8.43991 130.92 7.86682 129.535C7.29374 128.15 6.99919 126.665 7 125.166V11.4109ZM61.0622 52.0755H79.5568V61.3632C82.2264 56.024 89.0555 51.2188 99.3179 51.2188C118.992 51.2188 123.655 61.8536 123.655 81.3664V117.511H103.744V85.8116C103.744 74.6987 101.075 68.4283 94.2954 68.4283C84.8898 68.4283 80.9785 75.1891 80.9785 85.8116V117.511H61.0622V52.0755ZM26.9163 116.661H46.8327V51.2188H26.9163V116.655V116.661ZM49.6823 29.8745C49.7198 31.5798 49.4164 33.2754 48.7898 34.8618C48.1632 36.4482 47.226 37.8934 46.0332 39.1127C44.8405 40.332 43.4162 41.3008 41.844 41.9622C40.2718 42.6236 38.5833 42.9643 36.8776 42.9643C35.1719 42.9643 33.4834 42.6236 31.9112 41.9622C30.339 41.3008 28.9147 40.332 27.722 39.1127C26.5292 37.8934 25.5921 36.4482 24.9654 34.8618C24.3388 33.2754 24.0354 31.5798 24.0729 29.8745C24.1466 26.5273 25.5281 23.3421 27.9214 21.0009C30.3147 18.6597 33.5296 17.3487 36.8776 17.3487C40.2256 17.3487 43.4405 18.6597 45.8338 21.0009C48.2272 23.3421 49.6086 26.5273 49.6823 29.8745V29.8745Z" fill="white"/>
<path d="M125.16 6.00002L125.163 6.00001C126.4 5.99799 127.625 6.23993 128.768 6.71198C129.911 7.18403 130.95 7.87691 131.825 8.75096C132.7 9.62502 133.394 10.6631 133.867 11.8057C134.341 12.9483 134.584 14.1731 134.583 15.4098V15.4109L134.583 129.16L134.583 129.162C134.585 130.399 134.342 131.625 133.869 132.768C133.397 133.911 132.703 134.95 131.829 135.825C130.954 136.7 129.916 137.394 128.773 137.867C127.63 138.341 126.404 138.584 125.167 138.583H125.166H11.4109C10.1746 138.583 8.95045 138.34 7.80833 137.867C6.66621 137.393 5.62853 136.7 4.75458 135.825C3.88063 134.951 3.18754 133.913 2.71489 132.77C2.24225 131.628 1.99933 130.404 2 129.167V129.166V15.4109C2 12.915 2.99151 10.5213 4.7564 8.75641C6.52128 6.99152 8.91499 6.00002 11.4109 6.00002L125.16 6.00002ZM54.0622 54.0755H52.0622V56.0755V121.511V123.511H54.0622H73.9785H75.9785V121.511V89.8116C75.9785 84.6894 76.9314 80.8299 78.7379 78.2982C80.4598 75.885 83.1356 74.4283 87.2954 74.4283C88.6708 74.4283 89.7254 74.7422 90.5626 75.2718C91.4056 75.8052 92.1532 76.6367 92.7822 77.8645C94.0754 80.3886 94.7445 84.3434 94.7445 89.8116V121.511V123.511H96.7445H116.655H118.655V121.511V85.3664C118.655 75.5647 117.51 67.4638 113.494 61.8163C109.351 55.9895 102.508 53.2188 92.3179 53.2188C84.5948 53.2188 78.5258 55.7964 74.5568 59.4828V56.0755V54.0755H72.5568H54.0622ZM17.9163 120.661V122.661H19.9163H39.8327H41.8327V120.661V55.2188V53.2188H39.8327H19.9163H17.9163V55.2188V120.655V120.661ZM43.6499 39.5965C44.3744 37.7624 44.7252 35.802 44.6818 33.8305C44.5966 29.9606 42.9994 26.2779 40.2324 23.5712C37.4654 20.8644 33.7484 19.3487 29.8776 19.3487C26.0068 19.3487 22.2899 20.8644 19.5228 23.5712C16.7558 26.2779 15.1586 29.9606 15.0734 33.8305C15.03 35.802 15.3808 37.7624 16.1053 39.5965C16.8298 41.4306 17.9133 43.1016 19.2923 44.5113C20.6713 45.921 22.318 47.041 24.1357 47.8057C25.9534 48.5704 27.9056 48.9643 29.8776 48.9643C31.8496 48.9643 33.8018 48.5704 35.6195 47.8057C37.4372 47.041 39.0839 45.921 40.4629 44.5113C41.8419 43.1016 42.9255 41.4306 43.6499 39.5965Z" fill="white" stroke="black" stroke-width="4"/>
</svg>
