<svg width="116" height="111" viewBox="0 0 116 111" fill="none" xmlns="http://www.w3.org/2000/svg">
<path d="M7 102.625C7 104.15 7.6058 105.613 8.68414 106.691C9.76247 107.769 11.225 108.375 12.75 108.375H107.625C109.15 108.375 110.613 107.769 111.691 106.691C112.769 105.613 113.375 104.15 113.375 102.625H7ZM113.375 7.75C113.375 6.22501 112.769 4.76247 111.691 3.68414C110.613 2.6058 109.15 2 107.625 2H12.75C11.225 2 9.76247 2.6058 8.68414 3.68414C7.6058 4.76247 7 6.22501 7 7.75" fill="white"/>
<path d="M113.375 7.75C113.375 6.22501 112.769 4.76247 111.691 3.68414C110.613 2.6058 109.15 2 107.625 2H12.75C11.225 2 9.76247 2.6058 8.68414 3.68414C7.6058 4.76247 7 6.22501 7 7.75M7 102.625C7 104.15 7.6058 105.613 8.68414 106.691C9.76247 107.769 11.225 108.375 12.75 108.375H107.625C109.15 108.375 110.613 107.769 111.691 106.691C112.769 105.613 113.375 104.15 113.375 102.625H7Z" stroke="white" stroke-width="4" stroke-linecap="round" stroke-linejoin="round"/>
<path d="M35.2584 81.2579C49.6567 81.2579 61.3289 69.5858 61.3289 55.1874C61.3289 40.7891 49.6567 29.1169 35.2584 29.1169C20.86 29.1169 9.18787 40.7891 9.18787 55.1874C9.18787 69.5858 20.86 81.2579 35.2584 81.2579Z" fill="white" stroke="white" stroke-width="4" stroke-linecap="round" stroke-linejoin="round"/>
<path d="M80.8817 81.2579C87.6601 81.2579 93.1551 69.5858 93.1551 55.1874C93.1551 40.7891 87.6601 29.1169 80.8817 29.1169C74.1033 29.1169 68.6084 40.7891 68.6084 55.1874C68.6084 69.5858 74.1033 81.2579 80.8817 81.2579Z" fill="white" stroke="white" stroke-width="4" stroke-linecap="round" stroke-linejoin="round"/>
<path d="M105.811 81.2579C108.78 81.2579 111.187 69.5858 111.187 55.1874C111.187 40.7891 108.78 29.1169 105.811 29.1169C102.842 29.1169 100.435 40.7891 100.435 55.1874C100.435 69.5858 102.842 81.2579 105.811 81.2579Z" fill="white" stroke="white" stroke-width="4" stroke-linecap="round" stroke-linejoin="round"/>
<path d="M108.375 7.75C108.375 6.22501 107.769 4.76247 106.691 3.68414C105.613 2.6058 104.15 2 102.625 2H7.75C6.22501 2 4.76247 2.6058 3.68414 3.68414C2.6058 4.76247 2 6.22501 2 7.75M2 102.625C2 104.15 2.6058 105.613 3.68414 106.691C4.76247 107.769 6.22501 108.375 7.75 108.375H102.625C104.15 108.375 105.613 107.769 106.691 106.691C107.769 105.613 108.375 104.15 108.375 102.625H2Z" stroke="black" stroke-width="4" stroke-linecap="round" stroke-linejoin="round"/>
<path d="M30.2584 81.2579C44.6567 81.2579 56.3289 69.5858 56.3289 55.1874C56.3289 40.7891 44.6567 29.1169 30.2584 29.1169C15.86 29.1169 4.18787 40.7891 4.18787 55.1874C4.18787 69.5858 15.86 81.2579 30.2584 81.2579Z" stroke="black" stroke-width="4" stroke-linecap="round" stroke-linejoin="round"/>
<path d="M75.8817 81.2579C82.6601 81.2579 88.1551 69.5858 88.1551 55.1874C88.1551 40.7891 82.6601 29.1169 75.8817 29.1169C69.1033 29.1169 63.6084 40.7891 63.6084 55.1874C63.6084 69.5858 69.1033 81.2579 75.8817 81.2579Z" stroke="black" stroke-width="4" stroke-linecap="round" stroke-linejoin="round"/>
<path d="M100.811 81.2579C103.78 81.2579 106.187 69.5858 106.187 55.1874C106.187 40.7891 103.78 29.1169 100.811 29.1169C97.8417 29.1169 95.4346 40.7891 95.4346 55.1874C95.4346 69.5858 97.8417 81.2579 100.811 81.2579Z" stroke="black" stroke-width="4" stroke-linecap="round" stroke-linejoin="round"/>
</svg>
